<mxfile host="app.diagrams.net" agent="Mozilla/5.0 (Macintosh; Intel Mac OS X 10_15_7) AppleWebKit/537.36 (KHTML, like Gecko) Chrome/135.0.0.0 Safari/537.36" version="26.2.14">
  <diagram name="Page-1" id="GGIrioQauOY1us2RAe7l">
    <mxGraphModel dx="1273" dy="819" grid="0" gridSize="10" guides="1" tooltips="1" connect="1" arrows="1" fold="1" page="1" pageScale="1" pageWidth="1100" pageHeight="850" math="0" shadow="0">
      <root>
        <mxCell id="0" />
        <mxCell id="1" parent="0" />
        <mxCell id="kKUS47om8AyqRbvvtfju-7" style="rounded=0;orthogonalLoop=1;jettySize=auto;html=1;exitX=1;exitY=0.5;exitDx=0;exitDy=0;entryX=0;entryY=0.5;entryDx=0;entryDy=0;endArrow=none;startFill=0;" parent="1" source="kKUS47om8AyqRbvvtfju-1" edge="1">
          <mxGeometry relative="1" as="geometry">
            <mxPoint x="625" y="668" as="targetPoint" />
          </mxGeometry>
        </mxCell>
        <mxCell id="kKUS47om8AyqRbvvtfju-8" style="rounded=0;orthogonalLoop=1;jettySize=auto;html=1;exitX=1;exitY=0.5;exitDx=0;exitDy=0;entryX=0;entryY=0.5;entryDx=0;entryDy=0;endArrow=none;startFill=0;" parent="1" source="kKUS47om8AyqRbvvtfju-1" target="kKUS47om8AyqRbvvtfju-4" edge="1">
          <mxGeometry relative="1" as="geometry" />
        </mxCell>
        <mxCell id="kKUS47om8AyqRbvvtfju-18" value="&lt;font style=&quot;font-size: 13px;&quot;&gt;1&lt;/font&gt;" style="edgeStyle=none;rounded=0;orthogonalLoop=1;jettySize=auto;html=1;exitX=0.5;exitY=0;exitDx=0;exitDy=0;entryX=0.5;entryY=1;entryDx=0;entryDy=0;strokeColor=default;align=center;verticalAlign=middle;fontFamily=Helvetica;fontSize=11;fontColor=default;labelBackgroundColor=default;startFill=0;endArrow=none;" parent="1" source="kKUS47om8AyqRbvvtfju-1" target="kKUS47om8AyqRbvvtfju-17" edge="1">
          <mxGeometry relative="1" as="geometry" />
        </mxCell>
        <mxCell id="kKUS47om8AyqRbvvtfju-29" style="edgeStyle=none;shape=connector;rounded=0;orthogonalLoop=1;jettySize=auto;html=1;exitX=1;exitY=0.5;exitDx=0;exitDy=0;entryX=0;entryY=0.5;entryDx=0;entryDy=0;strokeColor=default;align=center;verticalAlign=middle;fontFamily=Helvetica;fontSize=11;fontColor=default;labelBackgroundColor=default;startFill=0;endArrow=none;" parent="1" source="kKUS47om8AyqRbvvtfju-1" target="kKUS47om8AyqRbvvtfju-28" edge="1">
          <mxGeometry relative="1" as="geometry" />
        </mxCell>
        <mxCell id="kKUS47om8AyqRbvvtfju-30" style="edgeStyle=none;shape=connector;rounded=0;orthogonalLoop=1;jettySize=auto;html=1;exitX=1;exitY=0.5;exitDx=0;exitDy=0;strokeColor=default;align=center;verticalAlign=middle;fontFamily=Helvetica;fontSize=11;fontColor=default;labelBackgroundColor=default;startFill=0;endArrow=none;" parent="1" source="kKUS47om8AyqRbvvtfju-1" target="kKUS47om8AyqRbvvtfju-27" edge="1">
          <mxGeometry relative="1" as="geometry" />
        </mxCell>
        <mxCell id="kKUS47om8AyqRbvvtfju-31" style="edgeStyle=none;shape=connector;rounded=0;orthogonalLoop=1;jettySize=auto;html=1;exitX=1;exitY=0.5;exitDx=0;exitDy=0;entryX=0;entryY=0.5;entryDx=0;entryDy=0;strokeColor=default;align=center;verticalAlign=middle;fontFamily=Helvetica;fontSize=11;fontColor=default;labelBackgroundColor=default;startFill=0;endArrow=none;" parent="1" source="kKUS47om8AyqRbvvtfju-1" target="kKUS47om8AyqRbvvtfju-26" edge="1">
          <mxGeometry relative="1" as="geometry" />
        </mxCell>
        <mxCell id="kKUS47om8AyqRbvvtfju-1" value="&lt;font style=&quot;font-size: 16px;&quot; face=&quot;Amiri&quot;&gt;تشکل&lt;/font&gt;" style="rounded=0;whiteSpace=wrap;html=1;" parent="1" vertex="1">
          <mxGeometry x="622" y="638" width="120" height="60" as="geometry" />
        </mxCell>
        <mxCell id="kKUS47om8AyqRbvvtfju-19" value="&lt;font style=&quot;font-size: 13px;&quot;&gt;N&lt;/font&gt;" style="edgeStyle=none;shape=link;rounded=0;orthogonalLoop=1;jettySize=auto;html=1;exitX=0.5;exitY=1;exitDx=0;exitDy=0;entryX=0.5;entryY=0;entryDx=0;entryDy=0;strokeColor=default;align=center;verticalAlign=middle;fontFamily=Helvetica;fontSize=11;fontColor=default;labelBackgroundColor=default;startFill=0;endArrow=none;" parent="1" source="kKUS47om8AyqRbvvtfju-16" target="kKUS47om8AyqRbvvtfju-17" edge="1">
          <mxGeometry relative="1" as="geometry" />
        </mxCell>
        <mxCell id="kKUS47om8AyqRbvvtfju-33" style="edgeStyle=none;shape=connector;rounded=0;orthogonalLoop=1;jettySize=auto;html=1;exitX=1;exitY=0.5;exitDx=0;exitDy=0;entryX=0;entryY=0.5;entryDx=0;entryDy=0;strokeColor=default;align=center;verticalAlign=middle;fontFamily=Helvetica;fontSize=11;fontColor=default;labelBackgroundColor=default;startFill=0;endArrow=none;" parent="1" source="kKUS47om8AyqRbvvtfju-16" target="kKUS47om8AyqRbvvtfju-32" edge="1">
          <mxGeometry relative="1" as="geometry" />
        </mxCell>
        <mxCell id="RUD8C3D8xYWfz9FBeBZ--32" value="&lt;font style=&quot;font-size: 13px;&quot;&gt;M&lt;/font&gt;" style="edgeStyle=none;shape=connector;rounded=0;orthogonalLoop=1;jettySize=auto;html=1;exitX=0.5;exitY=0;exitDx=0;exitDy=0;entryX=0.5;entryY=1;entryDx=0;entryDy=0;strokeColor=default;align=center;verticalAlign=middle;fontFamily=Helvetica;fontSize=11;fontColor=default;labelBackgroundColor=default;startFill=0;endArrow=none;" parent="1" source="kKUS47om8AyqRbvvtfju-16" target="RUD8C3D8xYWfz9FBeBZ--15" edge="1">
          <mxGeometry relative="1" as="geometry" />
        </mxCell>
        <mxCell id="kKUS47om8AyqRbvvtfju-16" value="&lt;font style=&quot;font-size: 15px;&quot; face=&quot;Amiri&quot;&gt;دوره تشکل&lt;/font&gt;" style="shape=ext;margin=3;double=1;whiteSpace=wrap;html=1;align=center;fontFamily=Helvetica;fontSize=11;fontColor=default;labelBackgroundColor=default;" parent="1" vertex="1">
          <mxGeometry x="632" y="424" width="100" height="40" as="geometry" />
        </mxCell>
        <mxCell id="kKUS47om8AyqRbvvtfju-17" value="&lt;font face=&quot;Amiri&quot; style=&quot;font-size: 15px;&quot; data-font-src=&quot;https://fonts.googleapis.com/css?family=Amiri&quot;&gt;دارد&lt;/font&gt;" style="shape=rhombus;double=1;perimeter=rhombusPerimeter;whiteSpace=wrap;html=1;align=center;fontFamily=Helvetica;fontSize=11;fontColor=default;labelBackgroundColor=default;" parent="1" vertex="1">
          <mxGeometry x="622" y="521" width="120" height="60" as="geometry" />
        </mxCell>
        <mxCell id="kKUS47om8AyqRbvvtfju-26" value="&lt;font data-font-src=&quot;https://fonts.googleapis.com/css?family=Amiri&quot; face=&quot;Amiri&quot; style=&quot;font-size: 16px;&quot;&gt;تعداد اعضا&lt;/font&gt;" style="ellipse;whiteSpace=wrap;html=1;" parent="1" vertex="1">
          <mxGeometry x="804" y="663" width="71" height="54" as="geometry" />
        </mxCell>
        <mxCell id="kKUS47om8AyqRbvvtfju-27" value="&lt;font data-font-src=&quot;https://fonts.googleapis.com/css?family=Amiri&quot; face=&quot;Amiri&quot; style=&quot;font-size: 15px;&quot;&gt;اساسنامه&lt;/font&gt;" style="ellipse;whiteSpace=wrap;html=1;" parent="1" vertex="1">
          <mxGeometry x="798" y="602" width="71" height="54" as="geometry" />
        </mxCell>
        <mxCell id="kKUS47om8AyqRbvvtfju-28" value="&lt;font data-font-src=&quot;https://fonts.googleapis.com/css?family=Amiri&quot; face=&quot;Amiri&quot; style=&quot;font-size: 15px;&quot;&gt;سال تاسسیس&lt;/font&gt;" style="ellipse;whiteSpace=wrap;html=1;" parent="1" vertex="1">
          <mxGeometry x="800" y="541" width="71" height="54" as="geometry" />
        </mxCell>
        <mxCell id="RUD8C3D8xYWfz9FBeBZ--3" value="1" style="edgeStyle=none;rounded=0;orthogonalLoop=1;jettySize=auto;html=1;exitX=1;exitY=0.5;exitDx=0;exitDy=0;entryX=0;entryY=0.5;entryDx=0;entryDy=0;strokeColor=default;align=center;verticalAlign=middle;fontFamily=Helvetica;fontSize=11;fontColor=default;labelBackgroundColor=default;startFill=0;endArrow=none;" parent="1" source="kKUS47om8AyqRbvvtfju-35" target="kKUS47om8AyqRbvvtfju-16" edge="1">
          <mxGeometry relative="1" as="geometry" />
        </mxCell>
        <mxCell id="kKUS47om8AyqRbvvtfju-35" value="&lt;font style=&quot;font-size: 15px;&quot; data-font-src=&quot;https://fonts.googleapis.com/css?family=Amiri&quot; face=&quot;Amiri&quot;&gt;دارد&lt;/font&gt;" style="shape=rhombus;double=1;perimeter=rhombusPerimeter;whiteSpace=wrap;html=1;align=center;fontFamily=Helvetica;fontSize=11;fontColor=default;labelBackgroundColor=default;" parent="1" vertex="1">
          <mxGeometry x="256" y="414" width="120" height="60" as="geometry" />
        </mxCell>
        <mxCell id="NzwzC-Kefylgi9VjSz4B-2" style="rounded=0;orthogonalLoop=1;jettySize=auto;html=1;exitX=0;exitY=0.5;exitDx=0;exitDy=0;entryX=1;entryY=0.5;entryDx=0;entryDy=0;endArrow=none;startFill=0;" edge="1" parent="1" source="RUD8C3D8xYWfz9FBeBZ--4" target="kKUS47om8AyqRbvvtfju-16">
          <mxGeometry relative="1" as="geometry" />
        </mxCell>
        <mxCell id="RUD8C3D8xYWfz9FBeBZ--4" value="&lt;font style=&quot;font-size: 15px;&quot; face=&quot;Amiri&quot;&gt;&amp;nbsp; تاریخ انتخابات&lt;/font&gt;" style="ellipse;whiteSpace=wrap;html=1;" parent="1" vertex="1">
          <mxGeometry x="862" y="349" width="71" height="54" as="geometry" />
        </mxCell>
        <mxCell id="RUD8C3D8xYWfz9FBeBZ--20" style="edgeStyle=none;shape=connector;rounded=0;orthogonalLoop=1;jettySize=auto;html=1;exitX=0.5;exitY=0;exitDx=0;exitDy=0;entryX=0.5;entryY=1;entryDx=0;entryDy=0;strokeColor=default;align=center;verticalAlign=middle;fontFamily=Helvetica;fontSize=11;fontColor=default;labelBackgroundColor=default;startFill=0;endArrow=none;" parent="1" source="RUD8C3D8xYWfz9FBeBZ--7" target="RUD8C3D8xYWfz9FBeBZ--9" edge="1">
          <mxGeometry relative="1" as="geometry" />
        </mxCell>
        <mxCell id="RUD8C3D8xYWfz9FBeBZ--21" style="edgeStyle=none;shape=connector;rounded=0;orthogonalLoop=1;jettySize=auto;html=1;exitX=0.5;exitY=0;exitDx=0;exitDy=0;entryX=0.5;entryY=1;entryDx=0;entryDy=0;strokeColor=default;align=center;verticalAlign=middle;fontFamily=Helvetica;fontSize=11;fontColor=default;labelBackgroundColor=default;startFill=0;endArrow=none;" parent="1" source="RUD8C3D8xYWfz9FBeBZ--7" target="RUD8C3D8xYWfz9FBeBZ--8" edge="1">
          <mxGeometry relative="1" as="geometry" />
        </mxCell>
        <mxCell id="RUD8C3D8xYWfz9FBeBZ--24" value="&lt;font style=&quot;font-size: 13px;&quot;&gt;1&lt;/font&gt;" style="edgeStyle=none;shape=connector;rounded=0;orthogonalLoop=1;jettySize=auto;html=1;exitX=0.5;exitY=1;exitDx=0;exitDy=0;entryX=0.5;entryY=0;entryDx=0;entryDy=0;strokeColor=default;align=center;verticalAlign=middle;fontFamily=Helvetica;fontSize=11;fontColor=default;labelBackgroundColor=default;startFill=0;endArrow=none;" parent="1" source="RUD8C3D8xYWfz9FBeBZ--7" target="RUD8C3D8xYWfz9FBeBZ--16" edge="1">
          <mxGeometry relative="1" as="geometry" />
        </mxCell>
        <mxCell id="RUD8C3D8xYWfz9FBeBZ--27" value="&lt;font style=&quot;font-size: 13px;&quot;&gt;1&lt;/font&gt;" style="edgeStyle=none;shape=connector;rounded=0;orthogonalLoop=1;jettySize=auto;html=1;exitX=0.5;exitY=1;exitDx=0;exitDy=0;entryX=0.5;entryY=0;entryDx=0;entryDy=0;strokeColor=default;align=center;verticalAlign=middle;fontFamily=Helvetica;fontSize=11;fontColor=default;labelBackgroundColor=default;startFill=0;endArrow=none;" parent="1" source="RUD8C3D8xYWfz9FBeBZ--7" target="RUD8C3D8xYWfz9FBeBZ--17" edge="1">
          <mxGeometry relative="1" as="geometry" />
        </mxCell>
        <mxCell id="RUD8C3D8xYWfz9FBeBZ--31" value="&lt;font style=&quot;font-size: 13px;&quot;&gt;N&lt;/font&gt;" style="edgeStyle=none;shape=connector;rounded=0;orthogonalLoop=1;jettySize=auto;html=1;exitX=0.5;exitY=1;exitDx=0;exitDy=0;entryX=0.5;entryY=0;entryDx=0;entryDy=0;strokeColor=default;align=center;verticalAlign=middle;fontFamily=Helvetica;fontSize=11;fontColor=default;labelBackgroundColor=default;startFill=0;endArrow=none;" parent="1" source="RUD8C3D8xYWfz9FBeBZ--7" target="RUD8C3D8xYWfz9FBeBZ--15" edge="1">
          <mxGeometry relative="1" as="geometry" />
        </mxCell>
        <mxCell id="RUD8C3D8xYWfz9FBeBZ--42" style="edgeStyle=none;shape=connector;rounded=0;orthogonalLoop=1;jettySize=auto;html=1;exitX=0.5;exitY=0;exitDx=0;exitDy=0;entryX=0.5;entryY=1;entryDx=0;entryDy=0;strokeColor=default;align=center;verticalAlign=middle;fontFamily=Helvetica;fontSize=11;fontColor=default;labelBackgroundColor=default;startFill=0;endArrow=none;" parent="1" source="RUD8C3D8xYWfz9FBeBZ--7" target="RUD8C3D8xYWfz9FBeBZ--40" edge="1">
          <mxGeometry relative="1" as="geometry" />
        </mxCell>
        <mxCell id="-aw7aVhJV9E8IO7hgwCG-41" value="&lt;font style=&quot;font-size: 13px;&quot;&gt;M&lt;/font&gt;" style="edgeStyle=none;shape=connector;rounded=0;orthogonalLoop=1;jettySize=auto;html=1;exitX=0.5;exitY=0;exitDx=0;exitDy=0;entryX=1;entryY=0.5;entryDx=0;entryDy=0;strokeColor=default;align=center;verticalAlign=middle;fontFamily=Helvetica;fontSize=11;fontColor=default;labelBackgroundColor=default;startFill=0;endArrow=none;" parent="1" source="RUD8C3D8xYWfz9FBeBZ--7" target="-aw7aVhJV9E8IO7hgwCG-39" edge="1">
          <mxGeometry relative="1" as="geometry" />
        </mxCell>
        <mxCell id="RUD8C3D8xYWfz9FBeBZ--7" value="&lt;font style=&quot;font-size: 15px;&quot; data-font-src=&quot;https://fonts.googleapis.com/css?family=Amiri&quot; face=&quot;Amiri&quot;&gt;دانشجو&lt;/font&gt;" style="rounded=0;whiteSpace=wrap;html=1;fontFamily=Helvetica;fontSize=11;fontColor=default;labelBackgroundColor=default;" parent="1" vertex="1">
          <mxGeometry x="622" y="156" width="120" height="60" as="geometry" />
        </mxCell>
        <mxCell id="RUD8C3D8xYWfz9FBeBZ--9" value="&lt;font style=&quot;font-size: 15px;&quot; face=&quot;Amiri&quot;&gt;نام خانوادگی&lt;/font&gt;" style="ellipse;whiteSpace=wrap;html=1;" parent="1" vertex="1">
          <mxGeometry x="742" y="56" width="71" height="54" as="geometry" />
        </mxCell>
        <mxCell id="RUD8C3D8xYWfz9FBeBZ--19" style="edgeStyle=none;shape=connector;rounded=0;orthogonalLoop=1;jettySize=auto;html=1;exitX=0.5;exitY=1;exitDx=0;exitDy=0;entryX=0.5;entryY=0;entryDx=0;entryDy=0;strokeColor=default;align=center;verticalAlign=middle;fontFamily=Helvetica;fontSize=11;fontColor=default;labelBackgroundColor=default;startFill=0;endArrow=none;" parent="1" source="RUD8C3D8xYWfz9FBeBZ--10" target="RUD8C3D8xYWfz9FBeBZ--7" edge="1">
          <mxGeometry relative="1" as="geometry" />
        </mxCell>
        <mxCell id="RUD8C3D8xYWfz9FBeBZ--10" value="&lt;font data-font-src=&quot;https://fonts.googleapis.com/css?family=Amiri&quot; face=&quot;Amiri&quot; style=&quot;font-size: 15px;&quot;&gt;نام&lt;/font&gt;" style="ellipse;whiteSpace=wrap;html=1;" parent="1" vertex="1">
          <mxGeometry x="646.5" y="56" width="71" height="54" as="geometry" />
        </mxCell>
        <mxCell id="-aw7aVhJV9E8IO7hgwCG-10" style="rounded=0;orthogonalLoop=1;jettySize=auto;html=1;exitX=0;exitY=0.5;exitDx=0;exitDy=0;entryX=1;entryY=0.5;entryDx=0;entryDy=0;endArrow=none;startFill=0;" parent="1" source="RUD8C3D8xYWfz9FBeBZ--15" target="-aw7aVhJV9E8IO7hgwCG-7" edge="1">
          <mxGeometry relative="1" as="geometry" />
        </mxCell>
        <mxCell id="-aw7aVhJV9E8IO7hgwCG-11" style="edgeStyle=none;shape=connector;rounded=0;orthogonalLoop=1;jettySize=auto;html=1;exitX=0;exitY=0.5;exitDx=0;exitDy=0;entryX=1;entryY=0.5;entryDx=0;entryDy=0;strokeColor=default;align=center;verticalAlign=middle;fontFamily=Helvetica;fontSize=11;fontColor=default;labelBackgroundColor=default;startFill=0;endArrow=none;" parent="1" source="RUD8C3D8xYWfz9FBeBZ--15" target="-aw7aVhJV9E8IO7hgwCG-6" edge="1">
          <mxGeometry relative="1" as="geometry" />
        </mxCell>
        <mxCell id="RUD8C3D8xYWfz9FBeBZ--15" value="&lt;font style=&quot;font-size: 15px;&quot; data-font-src=&quot;https://fonts.googleapis.com/css?family=Amiri&quot; face=&quot;Amiri&quot;&gt;علی البدل&lt;/font&gt;" style="shape=rhombus;perimeter=rhombusPerimeter;whiteSpace=wrap;html=1;align=center;fontFamily=Helvetica;fontSize=11;fontColor=default;labelBackgroundColor=default;" parent="1" vertex="1">
          <mxGeometry x="411" y="280" width="120" height="60" as="geometry" />
        </mxCell>
        <mxCell id="RUD8C3D8xYWfz9FBeBZ--26" value="&lt;font style=&quot;font-size: 13px;&quot;&gt;N&lt;/font&gt;" style="edgeStyle=none;shape=link;rounded=0;orthogonalLoop=1;jettySize=auto;html=1;exitX=0.5;exitY=1;exitDx=0;exitDy=0;entryX=0.5;entryY=0;entryDx=0;entryDy=0;strokeColor=default;align=center;verticalAlign=middle;fontFamily=Helvetica;fontSize=11;fontColor=default;labelBackgroundColor=default;startFill=0;endArrow=none;" parent="1" source="RUD8C3D8xYWfz9FBeBZ--16" target="kKUS47om8AyqRbvvtfju-16" edge="1">
          <mxGeometry relative="1" as="geometry" />
        </mxCell>
        <mxCell id="RUD8C3D8xYWfz9FBeBZ--16" value="&lt;font style=&quot;font-size: 15px;&quot; data-font-src=&quot;https://fonts.googleapis.com/css?family=Amiri&quot; face=&quot;Amiri&quot;&gt;دبیر&lt;/font&gt;" style="shape=rhombus;perimeter=rhombusPerimeter;whiteSpace=wrap;html=1;align=center;fontFamily=Helvetica;fontSize=11;fontColor=default;labelBackgroundColor=default;" parent="1" vertex="1">
          <mxGeometry x="542" y="280" width="120" height="60" as="geometry" />
        </mxCell>
        <mxCell id="RUD8C3D8xYWfz9FBeBZ--25" value="&lt;font style=&quot;font-size: 13px;&quot;&gt;N&lt;/font&gt;" style="edgeStyle=none;shape=link;rounded=0;orthogonalLoop=1;jettySize=auto;html=1;exitX=0.5;exitY=1;exitDx=0;exitDy=0;entryX=0.5;entryY=0;entryDx=0;entryDy=0;strokeColor=default;align=center;verticalAlign=middle;fontFamily=Helvetica;fontSize=11;fontColor=default;labelBackgroundColor=default;startFill=0;endArrow=none;" parent="1" source="RUD8C3D8xYWfz9FBeBZ--17" target="kKUS47om8AyqRbvvtfju-16" edge="1">
          <mxGeometry relative="1" as="geometry" />
        </mxCell>
        <mxCell id="RUD8C3D8xYWfz9FBeBZ--17" value="&lt;font style=&quot;font-size: 15px;&quot; data-font-src=&quot;https://fonts.googleapis.com/css?family=Amiri&quot; face=&quot;Amiri&quot;&gt;نایب&lt;/font&gt;" style="shape=rhombus;perimeter=rhombusPerimeter;whiteSpace=wrap;html=1;align=center;fontFamily=Helvetica;fontSize=11;fontColor=default;labelBackgroundColor=default;" parent="1" vertex="1">
          <mxGeometry x="673" y="280" width="120" height="60" as="geometry" />
        </mxCell>
        <mxCell id="RUD8C3D8xYWfz9FBeBZ--29" value="&lt;font style=&quot;font-size: 13px;&quot;&gt;M&lt;/font&gt;" style="edgeStyle=none;shape=connector;rounded=0;orthogonalLoop=1;jettySize=auto;html=1;exitX=0.5;exitY=1;exitDx=0;exitDy=0;entryX=0.5;entryY=0;entryDx=0;entryDy=0;strokeColor=default;align=center;verticalAlign=middle;fontFamily=Helvetica;fontSize=11;fontColor=default;labelBackgroundColor=default;startFill=0;endArrow=none;" parent="1" source="RUD8C3D8xYWfz9FBeBZ--18" target="kKUS47om8AyqRbvvtfju-16" edge="1">
          <mxGeometry relative="1" as="geometry" />
        </mxCell>
        <mxCell id="RUD8C3D8xYWfz9FBeBZ--30" value="&lt;font style=&quot;font-size: 13px;&quot;&gt;N&lt;/font&gt;" style="edgeStyle=none;shape=connector;rounded=0;orthogonalLoop=1;jettySize=auto;html=1;exitX=0.5;exitY=0;exitDx=0;exitDy=0;entryX=0.5;entryY=1;entryDx=0;entryDy=0;strokeColor=default;align=center;verticalAlign=middle;fontFamily=Helvetica;fontSize=11;fontColor=default;labelBackgroundColor=default;startFill=0;endArrow=none;" parent="1" source="RUD8C3D8xYWfz9FBeBZ--18" target="RUD8C3D8xYWfz9FBeBZ--7" edge="1">
          <mxGeometry relative="1" as="geometry" />
        </mxCell>
        <mxCell id="-aw7aVhJV9E8IO7hgwCG-12" style="edgeStyle=none;shape=connector;rounded=0;orthogonalLoop=1;jettySize=auto;html=1;exitX=1;exitY=0.5;exitDx=0;exitDy=0;entryX=0;entryY=0.5;entryDx=0;entryDy=0;strokeColor=default;align=center;verticalAlign=middle;fontFamily=Helvetica;fontSize=11;fontColor=default;labelBackgroundColor=default;startFill=0;endArrow=none;" parent="1" source="RUD8C3D8xYWfz9FBeBZ--18" target="-aw7aVhJV9E8IO7hgwCG-8" edge="1">
          <mxGeometry relative="1" as="geometry" />
        </mxCell>
        <mxCell id="-aw7aVhJV9E8IO7hgwCG-13" style="edgeStyle=none;shape=connector;rounded=0;orthogonalLoop=1;jettySize=auto;html=1;exitX=1;exitY=0.5;exitDx=0;exitDy=0;entryX=0;entryY=0.5;entryDx=0;entryDy=0;strokeColor=default;align=center;verticalAlign=middle;fontFamily=Helvetica;fontSize=11;fontColor=default;labelBackgroundColor=default;startFill=0;endArrow=none;" parent="1" source="RUD8C3D8xYWfz9FBeBZ--18" target="-aw7aVhJV9E8IO7hgwCG-9" edge="1">
          <mxGeometry relative="1" as="geometry" />
        </mxCell>
        <mxCell id="RUD8C3D8xYWfz9FBeBZ--18" value="&lt;font data-font-src=&quot;https://fonts.googleapis.com/css?family=Amiri&quot; face=&quot;Amiri&quot; style=&quot;font-size: 15px;&quot;&gt;عضو اصلی&lt;/font&gt;" style="shape=rhombus;perimeter=rhombusPerimeter;whiteSpace=wrap;html=1;align=center;fontFamily=Helvetica;fontSize=11;fontColor=default;labelBackgroundColor=default;" parent="1" vertex="1">
          <mxGeometry x="804" y="280" width="120" height="60" as="geometry" />
        </mxCell>
        <mxCell id="-aw7aVhJV9E8IO7hgwCG-6" value="&lt;font style=&quot;font-size: 15px;&quot; face=&quot;Amiri&quot;&gt;از&lt;/font&gt;" style="ellipse;whiteSpace=wrap;html=1;" parent="1" vertex="1">
          <mxGeometry x="338" y="261" width="38" height="35" as="geometry" />
        </mxCell>
        <mxCell id="-aw7aVhJV9E8IO7hgwCG-7" value="&lt;font style=&quot;font-size: 15px;&quot; face=&quot;Amiri&quot;&gt;تا&lt;/font&gt;" style="ellipse;whiteSpace=wrap;html=1;" parent="1" vertex="1">
          <mxGeometry x="338" y="314" width="38" height="35" as="geometry" />
        </mxCell>
        <mxCell id="-aw7aVhJV9E8IO7hgwCG-8" value="&lt;font style=&quot;font-size: 15px;&quot; face=&quot;Amiri&quot;&gt;تا&lt;/font&gt;" style="ellipse;whiteSpace=wrap;html=1;" parent="1" vertex="1">
          <mxGeometry x="942" y="314" width="38" height="35" as="geometry" />
        </mxCell>
        <mxCell id="-aw7aVhJV9E8IO7hgwCG-9" value="&lt;font style=&quot;font-size: 15px;&quot; face=&quot;Amiri&quot;&gt;از&lt;/font&gt;" style="ellipse;whiteSpace=wrap;html=1;" parent="1" vertex="1">
          <mxGeometry x="942" y="230" width="38" height="35" as="geometry" />
        </mxCell>
        <mxCell id="-aw7aVhJV9E8IO7hgwCG-25" value="&lt;font style=&quot;font-size: 13px;&quot;&gt;N&lt;/font&gt;" style="edgeStyle=none;shape=link;rounded=0;orthogonalLoop=1;jettySize=auto;html=1;exitX=1;exitY=0.5;exitDx=0;exitDy=0;entryX=0;entryY=0.5;entryDx=0;entryDy=0;strokeColor=default;align=center;verticalAlign=middle;fontFamily=Helvetica;fontSize=11;fontColor=default;labelBackgroundColor=default;startFill=0;endArrow=none;" parent="1" source="-aw7aVhJV9E8IO7hgwCG-16" target="-aw7aVhJV9E8IO7hgwCG-22" edge="1">
          <mxGeometry relative="1" as="geometry" />
        </mxCell>
        <mxCell id="-aw7aVhJV9E8IO7hgwCG-16" value="&lt;font data-font-src=&quot;https://fonts.googleapis.com/css?family=Amiri&quot; style=&quot;font-size: 15px;&quot; face=&quot;Amiri&quot;&gt;نامزد&lt;/font&gt;" style="shape=ext;margin=3;double=1;whiteSpace=wrap;html=1;align=center;fontFamily=Helvetica;fontSize=11;fontColor=default;labelBackgroundColor=default;" parent="1" vertex="1">
          <mxGeometry x="206" y="166" width="100" height="40" as="geometry" />
        </mxCell>
        <mxCell id="-aw7aVhJV9E8IO7hgwCG-23" value="&lt;font style=&quot;font-size: 13px;&quot;&gt;N&lt;/font&gt;" style="edgeStyle=none;shape=link;rounded=0;orthogonalLoop=1;jettySize=auto;html=1;exitX=0;exitY=0.5;exitDx=0;exitDy=0;entryX=0.5;entryY=1;entryDx=0;entryDy=0;strokeColor=default;align=center;verticalAlign=middle;fontFamily=Helvetica;fontSize=11;fontColor=default;labelBackgroundColor=default;startFill=0;endArrow=none;" parent="1" source="kKUS47om8AyqRbvvtfju-35" target="-aw7aVhJV9E8IO7hgwCG-16" edge="1">
          <mxGeometry relative="1" as="geometry">
            <mxPoint x="256" y="296" as="sourcePoint" />
          </mxGeometry>
        </mxCell>
        <mxCell id="-aw7aVhJV9E8IO7hgwCG-26" value="&lt;font style=&quot;font-size: 13px;&quot;&gt;1&lt;/font&gt;" style="edgeStyle=none;shape=connector;rounded=0;orthogonalLoop=1;jettySize=auto;html=1;exitX=1;exitY=0.5;exitDx=0;exitDy=0;entryX=0;entryY=0.5;entryDx=0;entryDy=0;strokeColor=default;align=center;verticalAlign=middle;fontFamily=Helvetica;fontSize=11;fontColor=default;labelBackgroundColor=default;startFill=0;endArrow=none;" parent="1" source="-aw7aVhJV9E8IO7hgwCG-22" target="RUD8C3D8xYWfz9FBeBZ--7" edge="1">
          <mxGeometry relative="1" as="geometry" />
        </mxCell>
        <mxCell id="-aw7aVhJV9E8IO7hgwCG-22" value="&lt;font data-font-src=&quot;https://fonts.googleapis.com/css?family=Amiri&quot; style=&quot;font-size: 15px;&quot; face=&quot;Amiri&quot;&gt;هست&lt;/font&gt;" style="shape=rhombus;double=1;perimeter=rhombusPerimeter;whiteSpace=wrap;html=1;align=center;fontFamily=Helvetica;fontSize=11;fontColor=default;labelBackgroundColor=default;" parent="1" vertex="1">
          <mxGeometry x="394" y="156" width="120" height="60" as="geometry" />
        </mxCell>
        <mxCell id="-aw7aVhJV9E8IO7hgwCG-28" style="edgeStyle=none;shape=connector;rounded=0;orthogonalLoop=1;jettySize=auto;html=1;exitX=0.5;exitY=1;exitDx=0;exitDy=0;entryX=0.5;entryY=0;entryDx=0;entryDy=0;strokeColor=default;align=center;verticalAlign=middle;fontFamily=Helvetica;fontSize=11;fontColor=default;labelBackgroundColor=default;startFill=0;endArrow=none;" parent="1" source="-aw7aVhJV9E8IO7hgwCG-27" target="-aw7aVhJV9E8IO7hgwCG-16" edge="1">
          <mxGeometry relative="1" as="geometry" />
        </mxCell>
        <mxCell id="-aw7aVhJV9E8IO7hgwCG-27" value="&lt;font face=&quot;Amiri&quot;&gt;تعداد آرا&lt;br&gt;&lt;/font&gt;" style="ellipse;whiteSpace=wrap;html=1;" parent="1" vertex="1">
          <mxGeometry x="77" y="85" width="71" height="54" as="geometry" />
        </mxCell>
        <mxCell id="-aw7aVhJV9E8IO7hgwCG-36" style="edgeStyle=none;shape=connector;rounded=0;orthogonalLoop=1;jettySize=auto;html=1;exitX=0.5;exitY=1;exitDx=0;exitDy=0;entryX=0.5;entryY=0;entryDx=0;entryDy=0;strokeColor=default;align=center;verticalAlign=middle;fontFamily=Helvetica;fontSize=11;fontColor=default;labelBackgroundColor=default;startFill=0;endArrow=none;" parent="1" source="-aw7aVhJV9E8IO7hgwCG-32" target="-aw7aVhJV9E8IO7hgwCG-16" edge="1">
          <mxGeometry relative="1" as="geometry" />
        </mxCell>
        <mxCell id="-aw7aVhJV9E8IO7hgwCG-34" style="edgeStyle=none;shape=connector;rounded=0;orthogonalLoop=1;jettySize=auto;html=1;exitX=1;exitY=0.5;exitDx=0;exitDy=0;entryX=0;entryY=0.5;entryDx=0;entryDy=0;strokeColor=default;align=center;verticalAlign=middle;fontFamily=Helvetica;fontSize=11;fontColor=default;labelBackgroundColor=default;startFill=0;endArrow=none;" parent="1" source="-aw7aVhJV9E8IO7hgwCG-33" target="-aw7aVhJV9E8IO7hgwCG-16" edge="1">
          <mxGeometry relative="1" as="geometry" />
        </mxCell>
        <mxCell id="-aw7aVhJV9E8IO7hgwCG-33" value="&lt;font style=&quot;font-size: 15px;&quot; face=&quot;Amiri&quot;&gt;وضعیت&lt;/font&gt;" style="ellipse;whiteSpace=wrap;html=1;" parent="1" vertex="1">
          <mxGeometry x="65" y="159" width="71" height="54" as="geometry" />
        </mxCell>
        <mxCell id="-aw7aVhJV9E8IO7hgwCG-40" value="&amp;nbsp;&lt;font style=&quot;font-size: 14px;&quot;&gt;N&lt;/font&gt;" style="edgeStyle=none;shape=connector;rounded=0;orthogonalLoop=1;jettySize=auto;html=1;exitX=0;exitY=0.5;exitDx=0;exitDy=0;entryX=0.5;entryY=0;entryDx=0;entryDy=0;strokeColor=default;align=center;verticalAlign=middle;fontFamily=Helvetica;fontSize=11;fontColor=default;labelBackgroundColor=default;startFill=0;endArrow=none;" parent="1" source="-aw7aVhJV9E8IO7hgwCG-39" target="-aw7aVhJV9E8IO7hgwCG-16" edge="1">
          <mxGeometry relative="1" as="geometry" />
        </mxCell>
        <mxCell id="-aw7aVhJV9E8IO7hgwCG-39" value="&lt;font data-font-src=&quot;https://fonts.googleapis.com/css?family=Amiri&quot; style=&quot;font-size: 15px;&quot; face=&quot;Amiri&quot;&gt;رای دادن&lt;/font&gt;" style="shape=rhombus;perimeter=rhombusPerimeter;whiteSpace=wrap;html=1;align=center;fontFamily=Helvetica;fontSize=11;fontColor=default;labelBackgroundColor=default;" parent="1" vertex="1">
          <mxGeometry x="394" y="69" width="120" height="60" as="geometry" />
        </mxCell>
        <mxCell id="-aw7aVhJV9E8IO7hgwCG-42" value="&lt;div&gt;&lt;font style=&quot;font-size: 20px;&quot; data-font-src=&quot;https://fonts.googleapis.com/css?family=Amiri&quot; face=&quot;Amiri&quot;&gt;حامد رجبی 401105945&lt;/font&gt;&lt;/div&gt;&lt;div&gt;&lt;font style=&quot;font-size: 20px;&quot; data-font-src=&quot;https://fonts.googleapis.com/css?family=Amiri&quot; face=&quot;Amiri&quot;&gt;محمدحسین برومندنیا 401170531&lt;br&gt;&lt;/font&gt;&lt;/div&gt;" style="rounded=0;whiteSpace=wrap;html=1;fontFamily=Helvetica;fontSize=11;fontColor=default;labelBackgroundColor=default;fillColor=none;strokeColor=none;" parent="1" vertex="1">
          <mxGeometry x="38" y="691" width="248" height="142" as="geometry" />
        </mxCell>
        <mxCell id="NzwzC-Kefylgi9VjSz4B-1" value="" style="group" vertex="1" connectable="0" parent="1">
          <mxGeometry x="862" y="410" width="71" height="54" as="geometry" />
        </mxCell>
        <mxCell id="kKUS47om8AyqRbvvtfju-32" value="&lt;font style=&quot;font-size: 15px;&quot; face=&quot;Amiri&quot;&gt;شماره دوره&lt;/font&gt;" style="ellipse;whiteSpace=wrap;html=1;" parent="NzwzC-Kefylgi9VjSz4B-1" vertex="1">
          <mxGeometry width="71" height="54" as="geometry" />
        </mxCell>
        <mxCell id="RUD8C3D8xYWfz9FBeBZ--39" value="" style="endArrow=none;html=1;rounded=0;strokeColor=default;align=center;verticalAlign=middle;fontFamily=Helvetica;fontSize=11;fontColor=default;labelBackgroundColor=default;strokeWidth=2;dashed=1;" parent="NzwzC-Kefylgi9VjSz4B-1" edge="1">
          <mxGeometry width="50" height="50" relative="1" as="geometry">
            <mxPoint x="18.5" y="43" as="sourcePoint" />
            <mxPoint x="52.5" y="43" as="targetPoint" />
          </mxGeometry>
        </mxCell>
        <mxCell id="NzwzC-Kefylgi9VjSz4B-3" value="" style="group" vertex="1" connectable="0" parent="1">
          <mxGeometry x="924" y="56" width="71" height="54" as="geometry" />
        </mxCell>
        <mxCell id="RUD8C3D8xYWfz9FBeBZ--8" value="&lt;font face=&quot;Amiri&quot;&gt;&lt;span style=&quot;font-size: 15px;&quot;&gt;شناسه&lt;/span&gt;&lt;/font&gt;" style="ellipse;whiteSpace=wrap;html=1;" parent="NzwzC-Kefylgi9VjSz4B-3" vertex="1">
          <mxGeometry width="71" height="54" as="geometry" />
        </mxCell>
        <mxCell id="RUD8C3D8xYWfz9FBeBZ--38" value="" style="endArrow=none;html=1;rounded=0;strokeColor=default;align=center;verticalAlign=middle;fontFamily=Helvetica;fontSize=11;fontColor=default;labelBackgroundColor=default;strokeWidth=4;" parent="NzwzC-Kefylgi9VjSz4B-3" edge="1">
          <mxGeometry width="50" height="50" relative="1" as="geometry">
            <mxPoint x="18.5" y="43" as="sourcePoint" />
            <mxPoint x="52.5" y="43" as="targetPoint" />
          </mxGeometry>
        </mxCell>
        <mxCell id="NzwzC-Kefylgi9VjSz4B-4" value="" style="group" vertex="1" connectable="0" parent="1">
          <mxGeometry x="150" y="41" width="71" height="54" as="geometry" />
        </mxCell>
        <mxCell id="-aw7aVhJV9E8IO7hgwCG-32" value="&lt;span style=&quot;font-family: Amiri; font-size: 15px;&quot;&gt;شناسه&lt;/span&gt;" style="ellipse;whiteSpace=wrap;html=1;" parent="NzwzC-Kefylgi9VjSz4B-4" vertex="1">
          <mxGeometry width="71" height="54" as="geometry" />
        </mxCell>
        <mxCell id="-aw7aVhJV9E8IO7hgwCG-38" value="" style="endArrow=none;html=1;rounded=0;strokeColor=default;align=center;verticalAlign=middle;fontFamily=Helvetica;fontSize=11;fontColor=default;labelBackgroundColor=default;strokeWidth=4;" parent="NzwzC-Kefylgi9VjSz4B-4" edge="1">
          <mxGeometry width="50" height="50" relative="1" as="geometry">
            <mxPoint x="18.5" y="43" as="sourcePoint" />
            <mxPoint x="52.5" y="43" as="targetPoint" />
          </mxGeometry>
        </mxCell>
        <mxCell id="NzwzC-Kefylgi9VjSz4B-5" value="" style="group" vertex="1" connectable="0" parent="1">
          <mxGeometry x="735" y="765" width="71" height="54" as="geometry" />
        </mxCell>
        <mxCell id="NzwzC-Kefylgi9VjSz4B-6" value="&lt;font face=&quot;Amiri&quot;&gt;&lt;span style=&quot;font-size: 15px;&quot;&gt;شناسه&lt;/span&gt;&lt;/font&gt;" style="ellipse;whiteSpace=wrap;html=1;" vertex="1" parent="NzwzC-Kefylgi9VjSz4B-5">
          <mxGeometry width="71" height="54" as="geometry" />
        </mxCell>
        <mxCell id="NzwzC-Kefylgi9VjSz4B-7" value="" style="endArrow=none;html=1;rounded=0;strokeColor=default;align=center;verticalAlign=middle;fontFamily=Helvetica;fontSize=11;fontColor=default;labelBackgroundColor=default;strokeWidth=4;" edge="1" parent="NzwzC-Kefylgi9VjSz4B-5">
          <mxGeometry width="50" height="50" relative="1" as="geometry">
            <mxPoint x="18.5" y="43" as="sourcePoint" />
            <mxPoint x="52.5" y="43" as="targetPoint" />
          </mxGeometry>
        </mxCell>
        <mxCell id="NzwzC-Kefylgi9VjSz4B-8" style="rounded=0;orthogonalLoop=1;jettySize=auto;html=1;exitX=0.5;exitY=0;exitDx=0;exitDy=0;entryX=1;entryY=0.5;entryDx=0;entryDy=0;endArrow=none;startFill=0;" edge="1" parent="1" source="NzwzC-Kefylgi9VjSz4B-6" target="kKUS47om8AyqRbvvtfju-1">
          <mxGeometry relative="1" as="geometry" />
        </mxCell>
        <mxCell id="NzwzC-Kefylgi9VjSz4B-10" value="" style="group" vertex="1" connectable="0" parent="1">
          <mxGeometry x="806" y="727" width="71" height="54" as="geometry" />
        </mxCell>
        <mxCell id="kKUS47om8AyqRbvvtfju-4" value="&lt;font data-font-src=&quot;https://fonts.googleapis.com/css?family=Amiri&quot; face=&quot;Amiri&quot; style=&quot;font-size: 15px;&quot;&gt;نام&lt;/font&gt;" style="ellipse;whiteSpace=wrap;html=1;" parent="NzwzC-Kefylgi9VjSz4B-10" vertex="1">
          <mxGeometry width="71" height="54" as="geometry" />
        </mxCell>
        <mxCell id="NzwzC-Kefylgi9VjSz4B-9" value="" style="endArrow=none;html=1;rounded=0;strokeColor=default;align=center;verticalAlign=middle;fontFamily=Helvetica;fontSize=11;fontColor=default;labelBackgroundColor=default;strokeWidth=2;shape=link;" edge="1" parent="NzwzC-Kefylgi9VjSz4B-10">
          <mxGeometry width="50" height="50" relative="1" as="geometry">
            <mxPoint x="18.5" y="44" as="sourcePoint" />
            <mxPoint x="52.5" y="44" as="targetPoint" />
          </mxGeometry>
        </mxCell>
        <mxCell id="NzwzC-Kefylgi9VjSz4B-11" value="" style="group" vertex="1" connectable="0" parent="1">
          <mxGeometry x="836" y="56" width="71" height="54" as="geometry" />
        </mxCell>
        <mxCell id="RUD8C3D8xYWfz9FBeBZ--40" value="&lt;font style=&quot;font-size: 15px;&quot; face=&quot;Amiri&quot;&gt;کد ملی&lt;/font&gt;" style="ellipse;whiteSpace=wrap;html=1;" parent="NzwzC-Kefylgi9VjSz4B-11" vertex="1">
          <mxGeometry width="71" height="54" as="geometry" />
        </mxCell>
        <mxCell id="RUD8C3D8xYWfz9FBeBZ--43" value="" style="endArrow=none;html=1;rounded=0;strokeColor=default;align=center;verticalAlign=middle;fontFamily=Helvetica;fontSize=11;fontColor=default;labelBackgroundColor=default;strokeWidth=2;shape=link;" parent="NzwzC-Kefylgi9VjSz4B-11" edge="1">
          <mxGeometry width="50" height="50" relative="1" as="geometry">
            <mxPoint x="18.5" y="44" as="sourcePoint" />
            <mxPoint x="52.5" y="44" as="targetPoint" />
          </mxGeometry>
        </mxCell>
        <mxCell id="NzwzC-Kefylgi9VjSz4B-15" style="rounded=0;orthogonalLoop=1;jettySize=auto;html=1;exitX=0;exitY=0.5;exitDx=0;exitDy=0;entryX=1;entryY=0.5;entryDx=0;entryDy=0;endArrow=none;startFill=0;" edge="1" parent="1" source="NzwzC-Kefylgi9VjSz4B-26" target="kKUS47om8AyqRbvvtfju-16">
          <mxGeometry relative="1" as="geometry">
            <mxPoint x="737.3333333333333" y="444.7777777777778" as="targetPoint" />
            <mxPoint x="862.0000000000009" y="496.9999999999998" as="sourcePoint" />
          </mxGeometry>
        </mxCell>
        <mxCell id="NzwzC-Kefylgi9VjSz4B-25" value="" style="group" vertex="1" connectable="0" parent="1">
          <mxGeometry x="862" y="471" width="71" height="54" as="geometry" />
        </mxCell>
        <mxCell id="NzwzC-Kefylgi9VjSz4B-26" value="&lt;font face=&quot;Amiri&quot;&gt;&lt;span style=&quot;font-size: 15px;&quot;&gt;شناسه&lt;/span&gt;&lt;/font&gt;" style="ellipse;whiteSpace=wrap;html=1;" vertex="1" parent="NzwzC-Kefylgi9VjSz4B-25">
          <mxGeometry width="71" height="54" as="geometry" />
        </mxCell>
        <mxCell id="NzwzC-Kefylgi9VjSz4B-27" value="" style="endArrow=none;html=1;rounded=0;strokeColor=default;align=center;verticalAlign=middle;fontFamily=Helvetica;fontSize=11;fontColor=default;labelBackgroundColor=default;strokeWidth=4;" edge="1" parent="NzwzC-Kefylgi9VjSz4B-25">
          <mxGeometry width="50" height="50" relative="1" as="geometry">
            <mxPoint x="18.5" y="43" as="sourcePoint" />
            <mxPoint x="52.5" y="43" as="targetPoint" />
          </mxGeometry>
        </mxCell>
        <mxCell id="NzwzC-Kefylgi9VjSz4B-30" value="&lt;div&gt;&lt;pre style=&quot;font-family: &amp;quot;JetBrains Mono&amp;quot;, monospace; font-size: 9.8pt;&quot;&gt;&lt;font style=&quot;color: rgb(0, 0, 0);&quot;&gt;&#39;qualified&#39;&lt;/font&gt;&lt;/pre&gt;&lt;pre style=&quot;font-family: &amp;quot;JetBrains Mono&amp;quot;, monospace; font-size: 9.8pt;&quot;&gt;&lt;font style=&quot;color: rgb(0, 0, 0);&quot;&gt;&#39;disqualified&#39;&lt;/font&gt;&lt;/pre&gt;&lt;pre style=&quot;font-family: &amp;quot;JetBrains Mono&amp;quot;, monospace; font-size: 9.8pt;&quot;&gt;&lt;font style=&quot;color: rgb(0, 0, 0);&quot;&gt;&#39;withdrawn&#39;&lt;/font&gt;&lt;/pre&gt;&lt;/div&gt;" style="text;html=1;align=center;verticalAlign=middle;resizable=0;points=[];autosize=1;strokeColor=none;fillColor=none;" vertex="1" parent="1">
          <mxGeometry x="36.5" y="203" width="128" height="111" as="geometry" />
        </mxCell>
      </root>
    </mxGraphModel>
  </diagram>
</mxfile>
